<svg xmlns="http://www.w3.org/2000/svg" viewBox="0 0 900 258" width="900" height="258" role="img" aria-label="Davis Higgins - Data Analyst; Data Science and AI; Python, SQL, Power BI, Machine Learning; Web Development and Digital Solutions">
<title>Davis Higgins - Data Analyst; Data Science and AI; Python, SQL, Power BI, Machine Learning; Web Development and Digital Solutions</title>
<defs>
  <linearGradient id="gFace" x1="0" y1="0" x2=".25" y2="1">
    <stop offset="0" stop-color="#FFFFFF"/>
    <stop offset=".52" stop-color="#F8FBFE"/>
    <stop offset="1" stop-color="#EDF3FA"/>
  </linearGradient>
  <linearGradient id="gEdge" x1="0" y1="0" x2="1" y2="0">
    <stop offset="0" stop-color="#4B9CD3" stop-opacity="0"/>
    <stop offset=".5" stop-color="#4B9CD3" stop-opacity=".85"/>
    <stop offset="1" stop-color="#4B9CD3" stop-opacity="0"/>
  </linearGradient>
  <linearGradient id="gAccent" x1="0" y1="0" x2="0" y2="1">
    <stop offset="0" stop-color="#9ACEE7"/>
    <stop offset="1" stop-color="#13294B"/>
  </linearGradient>
  <linearGradient id="gGloss" x1="0" y1="0" x2="1" y2="0">
    <stop offset="0" stop-color="#FFFFFF" stop-opacity="0"/>
    <stop offset=".5" stop-color="#FFFFFF" stop-opacity=".95"/>
    <stop offset="1" stop-color="#FFFFFF" stop-opacity="0"/>
  </linearGradient>
  <filter id="gShadow" x="-12%" y="-24%" width="124%" height="156%">
    <feDropShadow dx="0" dy="4" stdDeviation="6" flood-color="#13294B" flood-opacity=".10"/>
  </filter>
</defs>
<style>
    text { font-family: -apple-system,BlinkMacSystemFont,'Segoe UI',Helvetica,Arial,sans-serif; }
    .mono { font-family: ui-monospace,SFMono-Regular,'SF Mono',Menlo,Consolas,monospace; }
    .eyebrow { font-family: ui-monospace,SFMono-Regular,'SF Mono',Menlo,Consolas,monospace; font-size: 10px; letter-spacing: 2.4px; fill: #6B7A93; }
    .rule { stroke: #E3E7EE; stroke-width: 1; }
    .pulse { animation: pulse 3.2s ease-in-out infinite; }
    @keyframes pulse { 0%,100% { opacity:1 } 50% { opacity:.35 } }
    @media (prefers-reduced-motion: reduce) {
      * { animation: none !important; opacity: 1 !important; }
    }

    .name { font-size:62px; font-weight:800; letter-spacing:-2.2px; fill:#0A162C; }
    .tag { font-size:14px; fill:#2C4C7C; }
    .logo { animation: logo 3.2s ease-in-out infinite; }
    @keyframes logo { 0%,100% { opacity:1 } 50% { opacity:.45 } }
    .sweepline { stroke:#13294B; stroke-width:2; }
    .metaK { font-family:ui-monospace,SFMono-Regular,'SF Mono',Menlo,Consolas,monospace; font-size:9px; letter-spacing:2.2px; fill:#6B7A93; }
    .metaV { font-size:14px; font-weight:700; fill:#13294B; }
    .metaS { font-size:12px; fill:#6B7A93; }
    .scanBeam { animation: scanBeam 7.4s cubic-bezier(.45,0,.55,1) infinite; }
    @keyframes scanBeam { from { transform: translateY(0) } to { transform: translateY(226px) } }
    .gridDrift { animation: gridDrift 18s linear infinite; }
    @keyframes gridDrift { from { transform: translate(0,0) } to { transform: translate(-28px,-28px) } }
    .dataParticle { animation: dataParticle 5.8s ease-in-out infinite; transform-box:fill-box; transform-origin:center; }
    .p2,.p6 { animation-delay:-1.4s; } .p3,.p7 { animation-delay:-2.8s; } .p4,.p8 { animation-delay:-4.2s; }
    @keyframes dataParticle { 0%,100% { transform:translateY(0) scale(.8); fill-opacity:.10 } 50% { transform:translateY(-12px) scale(1.45); fill-opacity:.34 } }
    .holoBorder { stroke-dasharray:96 2180; animation:holoBorder 9s linear infinite; }
    @keyframes holoBorder { to { stroke-dashoffset:-2276 } }
    .nameShimmer { animation:nameShimmer 6.2s cubic-bezier(.4,0,.2,1) infinite; opacity:.48; }
    @keyframes nameShimmer { 0%,18% { transform:translateX(0); opacity:0 } 42% { opacity:.48 } 68%,100% { transform:translateX(720px); opacity:0 } }

    .heroBeam { animation: heroBeam 7s linear infinite; }
    @keyframes heroBeam { from { transform: translateX(0) } to { transform: translateX(924px) } }
</style>
<rect width="900" height="258" fill="#FFFFFF"/>

<rect x="28" y="16" width="844" height="226" rx="22" fill="url(#gFace)" filter="url(#gShadow)"/><rect x="28.5" y="16.5" width="843" height="225" rx="21.5" fill="none" stroke="#DCE6F2" stroke-width="1"/><rect x="50" y="17" width="800" height="1" fill="url(#gGloss)"/><rect x="28" y="30" width="3" height="198" rx="1.5" fill="url(#gAccent)"/>
<defs>
  <linearGradient id="scanWash" x1="0" y1="0" x2="0" y2="1"><stop offset="0" stop-color="#4B9CD3" stop-opacity=".28"/><stop offset=".18" stop-color="#4B9CD3" stop-opacity=".10"/><stop offset="1" stop-color="#4B9CD3" stop-opacity="0"/></linearGradient>
  <linearGradient id="scanCore" x1="0" y1="0" x2="1" y2="0"><stop offset="0" stop-color="#4B9CD3" stop-opacity="0"/><stop offset=".08" stop-color="#4B9CD3" stop-opacity=".5"/><stop offset=".5" stop-color="#3D7FB5" stop-opacity=".92"/><stop offset=".92" stop-color="#4B9CD3" stop-opacity=".5"/><stop offset="1" stop-color="#4B9CD3" stop-opacity="0"/></linearGradient>
  <pattern id="heroGrid" width="28" height="28" patternUnits="userSpaceOnUse"><path d="M28 0H0V28" fill="none" stroke="#4B9CD3" stroke-opacity=".075" stroke-width=".7"/><circle cx="1" cy="1" r="1" fill="#4B9CD3" fill-opacity=".12"/></pattern>
  <clipPath id="heroEffectsClip"><rect x="28" y="16" width="844" height="226" rx="22"/></clipPath>
  <clipPath id="nameClip"><text class="name" x="68" y="108">DAVIS HIGGINS</text></clipPath>
</defs>
<g clip-path="url(#heroEffectsClip)">
  <rect class="gridDrift" x="28" y="16" width="872" height="256" fill="url(#heroGrid)"/>
  <g class="particleField" fill="#4B9CD3" transform="translate(0,-68)"><circle class="dataParticle p1" cx="112" cy="116" r="1.5" fill-opacity=".22"/><circle class="dataParticle p2" cx="245" cy="56" r="1" fill-opacity=".16"/><circle class="dataParticle p3" cx="386" cy="188" r="1.4" fill-opacity=".18"/><circle class="dataParticle p4" cx="532" cy="96" r="1" fill-opacity=".2"/><circle class="dataParticle p5" cx="647" cy="266" r="1.5" fill-opacity=".16"/><circle class="dataParticle p6" cx="808" cy="184" r="1.2" fill-opacity=".22"/><circle class="dataParticle p7" cx="174" cy="292" r="1" fill-opacity=".18"/><circle class="dataParticle p8" cx="472" cy="302" r="1.3" fill-opacity=".16"/></g>
  <g class="scanBeam"><rect x="28" y="16" width="844" height="42" fill="url(#scanWash)"/><rect x="28" y="16" width="844" height="2" fill="url(#scanCore)"/><rect x="68" y="18" width="764" height="1" fill="#FFFFFF" fill-opacity=".38"/></g>
  <rect class="holoBorder" x="29" y="17" width="842" height="234" rx="21" fill="none" stroke="#4B9CD3" stroke-width="1.2"/>
</g>
<text class="eyebrow" x="68" y="48">CHARLOTTE, NORTH CAROLINA</text>
<text class="name" x="68" y="108">DAVIS HIGGINS</text>
<g clip-path="url(#nameClip)"><rect class="nameShimmer" x="-150" y="50" width="120" height="70" fill="url(#gEdge)"/></g>
<g class="logo" transform="translate(712.93,53.7) scale(0.33)"><path fill="#7AB7D3" fill-rule="evenodd" d="M57.5,1.0 133.0,0.5 134.0,1.5 141.0,1.5 142.0,2.5 149.0,3.5 152.0,5.5 154.0,5.5 156.0,7.5 158.0,7.5 165.0,13.5 166.0,13.5 173.5,22.0 178.5,32.0 178.5,34.0 180.5,38.0 180.5,44.0 181.5,45.0 181.5,65.0 180.5,66.0 180.5,73.0 179.5,74.0 179.5,77.0 178.5,78.0 178.5,83.0 176.5,86.0 176.5,90.0 174.5,93.0 174.5,95.0 172.5,98.0 172.5,100.0 170.5,102.0 170.5,104.0 168.5,108.0 161.5,117.0 161.5,118.0 149.0,130.5 135.0,138.5 133.0,138.5 130.0,140.5 128.0,140.5 124.0,142.5 120.0,142.5 119.0,143.5 115.0,143.5 114.0,144.5 105.0,144.5 104.0,145.5 29.5,145.0 30.5,143.0 30.5,138.0 31.5,137.0 31.5,134.0 32.5,133.0 32.5,128.0 34.5,124.0 33.5,123.0 34.5,122.0 34.5,118.0 35.5,117.0 35.5,114.0 36.5,113.0 37.5,102.0 38.5,101.0 38.5,98.0 39.5,97.0 39.5,93.0 40.5,92.0 40.5,88.0 41.5,87.0 41.5,82.0 42.5,81.0 42.5,78.0 43.5,77.0 43.5,72.0 44.5,71.0 44.5,67.0 45.5,66.0 45.5,61.0 46.5,60.0 46.5,57.0 47.5,56.0 47.5,51.0 48.5,50.0 48.5,47.0 49.5,46.0 49.5,41.0 50.5,40.0 50.5,37.0 51.5,36.0 51.5,31.0 52.5,30.0 53.5,20.0 54.5,19.0 54.5,16.0 55.5,15.0 55.5,10.0 56.5,9.0 56.5,6.0 57.5,5.0ZM204.5,1.0 240.5,1.0 240.5,3.0 239.5,4.0 239.5,8.0 238.5,9.0 238.5,13.0 237.5,14.0 237.5,18.0 236.5,19.0 236.5,23.0 235.5,24.0 235.5,29.0 234.5,30.0 234.5,33.0 233.5,34.0 233.5,39.0 232.5,40.0 232.5,43.0 231.5,44.0 231.5,49.0 230.5,50.0 230.5,53.0 229.5,54.0 230.0,57.5 293.0,57.5 294.5,55.0 295.5,45.0 296.5,44.0 296.5,41.0 297.5,40.0 297.5,35.0 298.5,34.0 298.5,31.0 299.5,30.0 299.5,24.0 300.5,23.0 300.5,20.0 301.5,19.0 301.5,14.0 302.5,13.0 302.5,10.0 303.5,9.0 303.5,4.0 304.5,3.0 304.5,1.0 340.5,1.0 340.5,6.0 339.5,7.0 339.5,10.0 338.5,11.0 338.5,15.0 337.5,16.0 337.5,20.0 336.5,21.0 336.5,25.0 335.5,26.0 335.5,30.0 334.5,31.0 334.5,36.0 333.5,37.0 333.5,40.0 332.5,41.0 332.5,46.0 331.5,47.0 331.5,50.0 330.5,51.0 330.5,56.0 329.5,57.0 329.5,60.0 328.5,61.0 328.5,66.0 327.5,67.0 327.5,70.0 326.5,71.0 325.5,82.0 324.5,83.0 324.5,86.0 323.5,87.0 323.5,92.0 322.5,93.0 322.5,97.0 321.5,98.0 321.5,102.0 320.5,103.0 320.5,107.0 319.5,108.0 319.5,112.0 318.5,113.0 318.5,117.0 317.5,118.0 317.5,123.0 316.5,124.0 316.5,127.0 315.5,128.0 315.0,131.5 313.0,132.5 310.0,132.5 306.0,134.5 303.0,134.5 300.0,136.5 296.0,136.5 293.0,138.5 290.0,138.5 286.0,140.5 282.0,140.5 281.0,141.5 277.0,142.5 276.5,141.0 277.5,140.0 277.5,137.0 278.5,136.0 278.5,131.0 279.5,130.0 279.5,127.0 280.5,126.0 280.5,121.0 281.5,120.0 281.5,117.0 282.5,116.0 282.5,112.0 283.5,111.0 284.5,101.0 285.5,100.0 285.5,96.0 286.5,95.0 286.5,91.0 287.5,90.0 287.5,88.0 285.0,86.5 284.0,87.5 226.0,87.5 225.0,86.5 223.5,88.0 222.5,94.0 221.5,95.0 221.5,100.0 220.5,101.0 220.5,105.0 219.5,106.0 219.5,110.0 218.5,111.0 217.5,121.0 216.5,122.0 216.5,125.0 215.5,126.0 215.5,131.0 214.5,132.0 214.5,135.0 213.5,136.0 213.5,141.0 212.5,142.0 212.5,145.0 176.5,145.0 176.5,141.0 177.5,140.0 177.5,137.0 178.5,136.0 178.5,131.0 179.5,130.0 179.5,127.0 180.5,126.0 180.5,121.0 181.5,120.0 181.5,117.0 182.5,116.0 182.5,111.0 183.5,110.0 183.5,107.0 184.5,106.0 184.5,101.0 185.5,100.0 185.5,97.0 186.5,96.0 186.5,91.0 187.5,90.0 187.5,87.0 188.5,86.0 188.5,81.0 189.5,80.0 189.5,77.0 190.5,76.0 190.5,71.0 191.5,70.0 191.5,67.0 192.5,66.0 192.5,60.0 193.5,59.0 193.5,56.0 194.5,55.0 194.5,50.0 195.5,49.0 195.5,46.0 196.5,45.0 196.5,40.0 197.5,39.0 197.5,36.0 198.5,35.0 198.5,30.0 199.5,29.0 199.5,26.0 200.5,25.0 200.5,20.0 201.5,19.0 201.5,14.0 202.5,13.0 202.5,10.0 203.5,9.0 203.5,4.0 204.5,3.0ZM89.0,30.5 87.5,32.0 86.5,42.0 85.5,43.0 85.5,46.0 84.5,47.0 84.5,52.0 83.5,53.0 83.5,57.0 82.5,58.0 82.5,62.0 81.5,63.0 81.5,67.0 80.5,68.0 80.5,72.0 79.5,73.0 79.5,77.0 78.5,78.0 78.5,83.0 77.5,84.0 77.5,87.0 76.5,88.0 76.5,93.0 75.5,94.0 75.5,97.0 74.5,98.0 74.5,103.0 73.5,104.0 73.5,108.0 72.5,109.0 72.5,113.0 71.5,115.0 108.0,115.5 109.0,114.5 112.0,114.5 118.0,111.5 120.0,111.5 122.0,109.5 125.0,108.5 129.5,105.0 129.5,104.0 135.5,97.0 139.5,89.0 139.5,87.0 141.5,84.0 141.5,81.0 143.5,77.0 143.5,71.0 144.5,70.0 144.5,65.0 145.5,64.0 145.5,55.0 144.5,54.0 144.5,50.0 143.5,49.0 143.5,46.0 141.5,42.0 137.5,38.0 137.0,36.5 136.0,36.5 131.0,32.5 128.0,32.5 127.0,31.5 124.0,31.5 123.0,30.5Z"/><path fill="#9ACEE7" fill-rule="evenodd" d="M17.5,125.0 16.5,130.0 14.5,133.0 14.5,143.0 18.5,151.0 29.0,159.5 33.0,161.5 35.0,161.5 38.0,163.5 40.0,163.5 43.0,165.5 46.0,165.5 47.0,166.5 49.0,166.5 50.0,167.5 54.0,167.5 55.0,168.5 59.0,168.5 60.0,169.5 66.0,169.5 67.0,170.5 72.0,170.5 73.0,171.5 84.0,171.5 85.0,172.5 101.0,172.5 102.0,173.5 119.0,173.5 120.0,172.5 136.0,172.5 137.0,171.5 138.0,172.5 139.0,171.5 154.0,171.5 155.0,170.5 162.0,170.5 163.0,169.5 173.0,169.5 174.0,168.5 189.0,167.5 190.0,166.5 195.0,166.5 196.0,165.5 202.0,165.5 203.0,164.5 207.0,164.5 208.0,163.5 214.0,163.5 215.0,162.5 219.0,162.5 220.0,161.5 225.0,161.5 226.0,160.5 230.0,160.5 231.0,159.5 240.0,158.5 241.0,157.5 244.0,157.5 245.0,156.5 248.0,156.5 249.0,155.5 258.0,154.5 259.0,153.5 262.0,153.5 263.0,152.5 266.0,152.5 267.0,151.5 270.0,151.5 271.0,150.5 282.0,148.5 283.0,147.5 289.0,146.5 293.0,144.5 297.0,144.5 300.0,142.5 303.0,142.5 307.0,140.5 310.0,140.5 313.0,138.5 316.0,138.5 317.0,137.5 318.0,138.5 320.0,136.5 334.0,132.5 337.0,130.5 340.0,130.5 343.0,128.5 345.0,128.5 348.0,126.5 350.0,126.5 354.0,124.5 355.5,125.0 354.0,126.5 334.0,136.5 332.0,136.5 316.0,144.5 314.0,144.5 311.0,146.5 309.0,146.5 301.0,150.5 296.0,151.5 293.0,153.5 291.0,153.5 290.0,154.5 288.0,154.5 287.0,155.5 285.0,155.5 284.0,156.5 282.0,156.5 281.0,157.5 279.0,157.5 278.0,158.5 276.0,158.5 275.0,159.5 273.0,159.5 272.0,160.5 270.0,160.5 263.0,163.5 260.0,163.5 259.0,164.5 257.0,164.5 250.0,167.5 246.0,167.5 242.0,169.5 239.0,169.5 235.0,171.5 231.0,171.5 227.0,173.5 223.0,173.5 219.0,175.5 215.0,175.5 214.0,176.5 211.0,176.5 210.0,177.5 206.0,177.5 205.0,178.5 202.0,178.5 201.0,179.5 196.0,179.5 195.0,180.5 192.0,180.5 191.0,181.5 186.0,181.5 185.0,182.5 181.0,182.5 180.0,183.5 174.0,183.5 173.0,184.5 169.0,184.5 168.0,185.5 161.0,185.5 160.0,186.5 155.0,186.5 154.0,187.5 137.0,188.5 136.0,189.5 125.0,189.5 124.0,190.5 108.0,190.5 107.0,191.5 76.0,191.5 75.0,190.5 63.0,190.5 62.0,189.5 54.0,189.5 53.0,188.5 48.0,188.5 47.0,187.5 42.0,187.5 38.0,185.5 34.0,185.5 33.0,184.5 28.0,183.5 25.0,181.5 23.0,181.5 13.0,176.5 10.0,173.5 9.0,173.5 2.5,166.0 2.5,164.0 0.5,161.0 0.5,149.0 1.5,148.0 2.5,143.0 8.5,133.0 16.5,125.0Z"/></g>
<line class="sweepline" x1="68" y1="136" x2="832" y2="136"/>
<clipPath id="heroBeamClip"><rect x="68" y="133" width="764" height="6"/></clipPath><g clip-path="url(#heroBeamClip)"><g class="heroBeam"><rect x="-92" y="135" width="160" height="2" fill="url(#gEdge)"/></g></g>
<text class="tag" x="68" y="160">Data Analyst | Data Science &amp; AI | Python, SQL, Power BI, Machine Learning | Web Development &amp; Digital Solutions</text>
<g><line x1="68" y1="166" x2="298" y2="166" class="rule"/><text class="metaK" x="68" y="186">CURRENT</text><text class="metaV" x="68" y="208">Data Analyst</text><text class="metaS" x="68" y="227">Kewaunee Scientific</text></g><g><line x1="326" y1="166" x2="556" y2="166" class="rule"/><text class="metaK" x="326" y="186">STUDIO</text><text class="metaV" x="326" y="208">Higgins Digital</text><text class="metaS" x="326" y="227">Web + brand systems</text></g><g><line x1="584" y1="166" x2="814" y2="166" class="rule"/><text class="metaK" x="584" y="186">FOCUS</text><text class="metaV" x="584" y="208">Data / AI</text><text class="metaS" x="584" y="227">Dashboards, tools, agents</text></g>

</svg>
