<svg xmlns="http://www.w3.org/2000/svg" viewBox="0 0 900 464" width="900" height="464" role="img" aria-label="Current positions: Data Analyst at Kewaunee Scientific; Founder &amp; Web Developer at Higgins Digital; Creative Director at Lakeside Sport Club; VP of Philanthropy &amp; Chaplain at Phi Delta Theta">
<title>Current positions: Data Analyst at Kewaunee Scientific; Founder &amp; Web Developer at Higgins Digital; Creative Director at Lakeside Sport Club; VP of Philanthropy &amp; Chaplain at Phi Delta Theta</title>
<defs>
  <linearGradient id="gFace" x1="0" y1="0" x2=".25" y2="1">
    <stop offset="0" stop-color="#FFFFFF"/>
    <stop offset=".52" stop-color="#F8FBFE"/>
    <stop offset="1" stop-color="#EDF3FA"/>
  </linearGradient>
  <linearGradient id="gEdge" x1="0" y1="0" x2="1" y2="0">
    <stop offset="0" stop-color="#4B9CD3" stop-opacity="0"/>
    <stop offset=".5" stop-color="#4B9CD3" stop-opacity=".85"/>
    <stop offset="1" stop-color="#4B9CD3" stop-opacity="0"/>
  </linearGradient>
  <linearGradient id="gAccent" x1="0" y1="0" x2="0" y2="1">
    <stop offset="0" stop-color="#9ACEE7"/>
    <stop offset="1" stop-color="#13294B"/>
  </linearGradient>
  <linearGradient id="gGloss" x1="0" y1="0" x2="1" y2="0">
    <stop offset="0" stop-color="#FFFFFF" stop-opacity="0"/>
    <stop offset=".5" stop-color="#FFFFFF" stop-opacity=".95"/>
    <stop offset="1" stop-color="#FFFFFF" stop-opacity="0"/>
  </linearGradient>
  <filter id="gShadow" x="-12%" y="-24%" width="124%" height="156%">
    <feDropShadow dx="0" dy="4" stdDeviation="6" flood-color="#13294B" flood-opacity=".10"/>
  </filter>
</defs>
<style>
    text { font-family: -apple-system,BlinkMacSystemFont,'Segoe UI',Helvetica,Arial,sans-serif; }
    .mono { font-family: ui-monospace,SFMono-Regular,'SF Mono',Menlo,Consolas,monospace; }
    .eyebrow { font-family: ui-monospace,SFMono-Regular,'SF Mono',Menlo,Consolas,monospace; font-size: 10px; letter-spacing: 2.4px; fill: #6B7A93; }
    .rule { stroke: #E3E7EE; stroke-width: 1; }
    .pulse { animation: pulse 3.2s ease-in-out infinite; }
    @keyframes pulse { 0%,100% { opacity:1 } 50% { opacity:.35 } }
    @media (prefers-reduced-motion: reduce) {
      * { animation: none !important; opacity: 1 !important; }
    }

    .when { font-family:ui-monospace,SFMono-Regular,'SF Mono',Menlo,Consolas,monospace; font-size:9.5px; letter-spacing:1.8px; fill:#6B7A93; }
    .role { font-size:17px; font-weight:700; fill:#0A162C; }
    .org { font-size:13px; font-weight:600; fill:#3D7FB5; }
    .desc { font-size:12px; fill:#6B7A93; }
</style>
<rect width="900" height="464" fill="#FFFFFF"/>
<rect x="56" y="24" width="788" height="92" rx="16" fill="url(#gFace)" filter="url(#gShadow)"/><rect x="56.5" y="24.5" width="787" height="91" rx="15.5" fill="none" stroke="#DCE6F2" stroke-width="1"/><rect x="72" y="25" width="756" height="1" fill="url(#gGloss)"/><rect x="56" y="38" width="3" height="64" rx="1.5" fill="url(#gAccent)"/><circle cx="86" cy="54" r="6" fill="#4B9CD3" opacity=".16"/><circle class="pulse" cx="86" cy="54" r="3" fill="#4B9CD3"/><text class="when" x="102" y="58">JUN 2025 — PRESENT</text><text class="role" x="86" y="86">Data Analyst</text><text class="org" x="86" y="104">Kewaunee Scientific</text><line x1="430" y1="46" x2="430" y2="94" class="rule"/><text class="desc" x="456" y="72">Power BI and Zoho Analytics dashboards, KPI reporting, CRM and</text><text class="desc" x="456" y="88">estimating audits, and data governance.</text><rect x="56" y="132" width="788" height="92" rx="16" fill="url(#gFace)" filter="url(#gShadow)"/><rect x="56.5" y="132.5" width="787" height="91" rx="15.5" fill="none" stroke="#DCE6F2" stroke-width="1"/><rect x="72" y="133" width="756" height="1" fill="url(#gGloss)"/><rect x="56" y="146" width="3" height="64" rx="1.5" fill="url(#gAccent)"/><circle cx="86" cy="162" r="6" fill="#4B9CD3" opacity=".16"/><circle class="pulse" cx="86" cy="162" r="3" fill="#4B9CD3"/><text class="when" x="102" y="166">JAN 2026 — PRESENT</text><text class="role" x="86" y="194">Founder &amp; Web Developer</text><text class="org" x="86" y="212">Higgins Digital</text><line x1="430" y1="154" x2="430" y2="202" class="rule"/><text class="desc" x="456" y="180">Web studio shipping high-performance, brand-forward sites for real</text><text class="desc" x="456" y="196">businesses.</text><rect x="56" y="240" width="788" height="92" rx="16" fill="url(#gFace)" filter="url(#gShadow)"/><rect x="56.5" y="240.5" width="787" height="91" rx="15.5" fill="none" stroke="#DCE6F2" stroke-width="1"/><rect x="72" y="241" width="756" height="1" fill="url(#gGloss)"/><rect x="56" y="254" width="3" height="64" rx="1.5" fill="url(#gAccent)"/><circle cx="86" cy="270" r="6" fill="#4B9CD3" opacity=".16"/><circle class="pulse" cx="86" cy="270" r="3" fill="#4B9CD3"/><text class="when" x="102" y="274">JUL 2026 — PRESENT</text><text class="role" x="86" y="302">Creative Director</text><text class="org" x="86" y="320">Lakeside Sport Club</text><line x1="430" y1="262" x2="430" y2="310" class="rule"/><text class="desc" x="456" y="288">Brand strategy, product development, merchandising, and digital</text><text class="desc" x="456" y="304">commerce operations.</text><rect x="56" y="348" width="788" height="92" rx="16" fill="url(#gFace)" filter="url(#gShadow)"/><rect x="56.5" y="348.5" width="787" height="91" rx="15.5" fill="none" stroke="#DCE6F2" stroke-width="1"/><rect x="72" y="349" width="756" height="1" fill="url(#gGloss)"/><rect x="56" y="362" width="3" height="64" rx="1.5" fill="url(#gAccent)"/><circle cx="86" cy="378" r="6" fill="#4B9CD3" opacity=".16"/><circle class="pulse" cx="86" cy="378" r="3" fill="#4B9CD3"/><text class="when" x="102" y="382">SEP 2025 — PRESENT</text><text class="role" x="86" y="410">VP of Philanthropy &amp; Chaplain</text><text class="org" x="86" y="428">Phi Delta Theta</text><line x1="430" y1="370" x2="430" y2="418" class="rule"/><text class="desc" x="456" y="396">Chapter leadership plus a custom digital study and resource hub</text><text class="desc" x="456" y="412">for the chapter.</text>
</svg>
